<svg width="49" height="55" viewBox="0 0 49 55" fill="none" xmlns="http://www.w3.org/2000/svg">
<path d="M9.27834 41.4023L7.53992 45.668H7.02197L5.28355 41.4023H5.74494C5.79654 41.4023 5.83821 41.4152 5.86997 41.441C5.90172 41.4668 5.92553 41.4995 5.94141 41.5392L7.14401 44.5487C7.16981 44.6162 7.19462 44.6896 7.21843 44.769C7.24423 44.8484 7.26705 44.9317 7.2869 45.019C7.30674 44.9317 7.32758 44.8484 7.34941 44.769C7.37124 44.6896 7.39505 44.6162 7.42085 44.5487L8.62048 41.5392C8.63238 41.5055 8.65521 41.4747 8.68894 41.4469C8.72466 41.4172 8.76733 41.4023 8.81694 41.4023H9.27834ZM13.0663 45.1976L13.0633 45.668H10.4348V41.4023H13.0633V41.8726H11.0123V43.2896H12.6734V43.742H11.0123V45.1976H13.0663ZM17.9222 41.4023V45.668H17.3448V43.7271H15.0437V45.668H14.4662V41.4023H15.0437V43.3044H17.3448V41.4023H17.9222ZM20.1856 45.668H19.6081V41.4023H20.1856V45.668ZM24.8667 44.7869C24.8984 44.7869 24.9262 44.7998 24.95 44.8256L25.1792 45.0726C25.0046 45.275 24.7922 45.4328 24.5422 45.5459C24.2941 45.659 23.9935 45.7156 23.6402 45.7156C23.3346 45.7156 23.0568 45.663 22.8068 45.5578C22.5567 45.4507 22.3434 45.3018 22.1668 45.1113C21.9901 44.9188 21.8532 44.6886 21.756 44.4207C21.6587 44.1528 21.6101 43.8581 21.6101 43.5366C21.6101 43.2151 21.6607 42.9204 21.7619 42.6525C21.8631 42.3846 22.005 42.1544 22.1876 41.9619C22.3722 41.7694 22.5924 41.6206 22.8484 41.5154C23.1044 41.4082 23.3872 41.3547 23.6968 41.3547C24.0004 41.3547 24.2683 41.4033 24.5005 41.5005C24.7327 41.5978 24.9371 41.7297 25.1137 41.8964L24.9232 42.1614C24.9113 42.1812 24.8954 42.1981 24.8756 42.212C24.8577 42.2239 24.8329 42.2298 24.8012 42.2298C24.7655 42.2298 24.7218 42.211 24.6702 42.1733C24.6186 42.1336 24.5511 42.0899 24.4678 42.0423C24.3844 41.9947 24.2802 41.952 24.1552 41.9143C24.0302 41.8746 23.8764 41.8548 23.6938 41.8548C23.4735 41.8548 23.2721 41.8935 23.0895 41.9709C22.907 42.0463 22.7492 42.1564 22.6162 42.3013C22.4853 42.4461 22.3831 42.6228 22.3096 42.8311C22.2362 43.0395 22.1995 43.2747 22.1995 43.5366C22.1995 43.8025 22.2372 44.0397 22.3126 44.2481C22.39 44.4564 22.4942 44.6331 22.6252 44.7779C22.7581 44.9208 22.9139 45.03 23.0925 45.1054C23.2731 45.1808 23.4676 45.2185 23.676 45.2185C23.803 45.2185 23.9171 45.2115 24.0183 45.1976C24.1215 45.1818 24.2157 45.158 24.3011 45.1262C24.3884 45.0944 24.4688 45.0548 24.5422 45.0071C24.6176 44.9575 24.692 44.899 24.7655 44.8315C24.7992 44.8017 24.8329 44.7869 24.8667 44.7869ZM28.0903 45.2096C28.2669 45.2096 28.4247 45.1798 28.5636 45.1202C28.7025 45.0607 28.8196 44.9774 28.9148 44.8702C29.0121 44.763 29.0855 44.635 29.1351 44.4862C29.1867 44.3374 29.2125 44.1736 29.2125 43.995V41.4023H29.787V43.995C29.787 44.2411 29.7473 44.4693 29.668 44.6797C29.5906 44.89 29.4784 45.0726 29.3316 45.2274C29.1867 45.3802 29.0091 45.5003 28.7988 45.5876C28.5884 45.6749 28.3522 45.7186 28.0903 45.7186C27.8283 45.7186 27.5922 45.6749 27.3818 45.5876C27.1715 45.5003 26.9929 45.3802 26.846 45.2274C26.6992 45.0726 26.586 44.89 26.5067 44.6797C26.4293 44.4693 26.3906 44.2411 26.3906 43.995V41.4023H26.9651V43.9921C26.9651 44.1707 26.9899 44.3344 27.0395 44.4832C27.0911 44.6321 27.1645 44.7601 27.2598 44.8672C27.357 44.9744 27.4751 45.0587 27.614 45.1202C27.7549 45.1798 27.9137 45.2096 28.0903 45.2096ZM33.8375 45.1828V45.668H31.4174V41.4023H31.9919V45.1828H33.8375ZM37.3362 44.0843L36.6664 42.3489C36.6466 42.2973 36.6258 42.2378 36.6039 42.1703C36.5821 42.1008 36.5613 42.0274 36.5414 41.95C36.4997 42.1108 36.4571 42.2447 36.4134 42.3519L35.7436 44.0843H37.3362ZM38.5388 45.668H38.0923C38.0407 45.668 37.999 45.6551 37.9673 45.6293C37.9355 45.6035 37.9117 45.5707 37.8958 45.531L37.4969 44.5011H35.5829L35.184 45.531C35.1721 45.5668 35.1493 45.5985 35.1155 45.6263C35.0818 45.6541 35.0401 45.668 34.9905 45.668H34.544L36.2497 41.4023H36.8331L38.5388 45.668ZM40.8771 43.4682C41.0438 43.4682 41.1906 43.4483 41.3176 43.4086C41.4466 43.3669 41.5538 43.3094 41.6391 43.236C41.7264 43.1606 41.7919 43.0713 41.8356 42.9681C41.8793 42.8649 41.9011 42.7508 41.9011 42.6257C41.9011 42.3717 41.8177 42.1802 41.651 42.0512C41.4843 41.9222 41.2343 41.8577 40.9009 41.8577H40.2698V43.4682H40.8771ZM42.8477 45.668H42.3357C42.2305 45.668 42.1531 45.6273 42.1035 45.5459L40.9962 44.0218C40.9624 43.9742 40.9257 43.9405 40.886 43.9206C40.8483 43.8988 40.7888 43.8879 40.7074 43.8879H40.2698V45.668H39.6953V41.4023H40.9009C41.1708 41.4023 41.404 41.4301 41.6004 41.4856C41.7969 41.5392 41.9586 41.6176 42.0856 41.7208C42.2146 41.824 42.3099 41.949 42.3714 42.0959C42.4329 42.2407 42.4637 42.4035 42.4637 42.5841C42.4637 42.7349 42.4399 42.8758 42.3922 43.0068C42.3446 43.1377 42.2752 43.2558 42.1839 43.361C42.0946 43.4642 41.9844 43.5525 41.8535 43.6259C41.7245 43.6993 41.5776 43.7549 41.4129 43.7926C41.4863 43.8343 41.5498 43.8948 41.6034 43.9742L42.8477 45.668ZM10.2437 49.8726V51.364H11.997V51.8343H10.2437V53.668H9.66624V49.4023H12.2947V49.8726H10.2437ZM16.048 53.1828V53.668H13.6279V49.4023H14.2024V53.1828H16.048ZM19.9128 53.1976L19.9098 53.668H17.2814V49.4023H19.9098V49.8726H17.8588V51.2896H19.5199V51.742H17.8588V53.1976H19.9128ZM24.5663 53.668H23.9948C23.9511 53.668 23.9164 53.6571 23.8906 53.6352C23.8668 53.6114 23.847 53.5856 23.8311 53.5578L22.688 51.7658C22.6721 51.8135 22.6543 51.8541 22.6344 51.8879L21.5211 53.5578C21.5013 53.5856 21.4795 53.6114 21.4556 53.6352C21.4338 53.6571 21.4031 53.668 21.3634 53.668H20.8275L22.2951 51.4771L20.8871 49.4023H21.4616C21.5033 49.4023 21.534 49.4092 21.5539 49.4231C21.5737 49.437 21.5916 49.4569 21.6075 49.4827L22.7208 51.1913C22.7346 51.1496 22.7555 51.104 22.7833 51.0544L23.8341 49.4946C23.8499 49.4668 23.8688 49.445 23.8906 49.4291C23.9124 49.4112 23.9382 49.4023 23.968 49.4023H24.5187L23.1048 51.4503L24.5663 53.668ZM26.3519 53.668H25.7744V49.4023H26.3519V53.668ZM29.5356 53.2096C29.7004 53.2096 29.8422 53.1907 29.9613 53.153C30.0804 53.1153 30.1776 53.0627 30.253 52.9952C30.3304 52.9258 30.387 52.8444 30.4227 52.7511C30.4584 52.6559 30.4763 52.5517 30.4763 52.4386C30.4763 52.2183 30.3979 52.0447 30.2411 51.9176C30.0844 51.7887 29.8492 51.7242 29.5356 51.7242H28.6128V53.2096H29.5356ZM28.6128 49.8577V51.3134H29.3749C29.5376 51.3134 29.6785 51.2955 29.7976 51.2598C29.9186 51.2241 30.0179 51.1744 30.0953 51.1109C30.1746 51.0474 30.2332 50.971 30.2709 50.8817C30.3086 50.7904 30.3275 50.6912 30.3275 50.5841C30.3275 50.332 30.252 50.1485 30.1012 50.0334C29.9504 49.9163 29.7162 49.8577 29.3987 49.8577H28.6128ZM29.3987 49.4023C29.6607 49.4023 29.8859 49.4281 30.0744 49.4797C30.2649 49.5313 30.4207 49.6047 30.5418 49.7C30.6648 49.7952 30.7551 49.9123 30.8127 50.0512C30.8702 50.1882 30.899 50.3429 30.899 50.5156C30.899 50.6208 30.8821 50.722 30.8484 50.8192C30.8166 50.9145 30.768 51.0038 30.7025 51.0871C30.637 51.1705 30.5537 51.2459 30.4525 51.3134C30.3533 51.3789 30.2362 51.4324 30.1012 51.4741C30.4148 51.5336 30.6499 51.6458 30.8067 51.8105C30.9655 51.9732 31.0448 52.1875 31.0448 52.4535C31.0448 52.634 31.0111 52.7988 30.9436 52.9476C30.8782 53.0964 30.7809 53.2244 30.6519 53.3316C30.5249 53.4388 30.3681 53.5221 30.1816 53.5816C29.9951 53.6392 29.7827 53.668 29.5446 53.668H28.0383V49.4023H29.3987ZM34.9026 53.1828V53.668H32.4825V49.4023H33.057V53.1828H34.9026ZM38.7675 53.1976L38.7645 53.668H36.136V49.4023H38.7645V49.8726H36.7135V51.2896H38.3745V51.742H36.7135V53.1976H38.7675Z" fill="#676F8F"/>
<path d="M23.5155 10.558C23.5155 10.0922 23.1811 9.69373 22.7224 9.6129L13.1316 7.92285C13.0211 7.90338 12.9081 7.90344 12.7976 7.92301L2.9954 9.65999C2.53715 9.7412 2.20321 10.1395 2.20321 10.6049V22.4353C2.20321 22.5032 2.21042 22.5709 2.22472 22.6373C2.8968 25.7585 5.67039 27.9701 8.01348 29.3479C9.21597 30.055 10.3757 30.5835 11.2328 30.9351C11.6624 31.1112 12.0186 31.244 12.2694 31.3334C12.3949 31.3781 12.4942 31.412 12.5634 31.4352C12.5979 31.4467 12.625 31.4556 12.644 31.4618L12.6665 31.469L12.6731 31.4711L12.6753 31.4718L12.676 31.4721C12.6764 31.4722 12.6766 31.4722 12.9651 30.557L12.6766 31.4722C12.8873 31.5386 13.1143 31.5303 13.3196 31.4487C18.3331 29.4558 20.8998 27.2859 22.2087 25.5105C22.8636 24.6223 23.1949 23.8439 23.3596 23.2575C23.4417 22.9654 23.4816 22.7241 23.5003 22.5442C23.5097 22.4543 23.5137 22.38 23.5152 22.3224C23.5159 22.2937 23.516 22.2691 23.5158 22.2489L23.5155 22.2373V10.558Z" fill="#EDEFF5" stroke="#939DFF" stroke-width="1.91926" stroke-miterlimit="10" stroke-linecap="square" stroke-linejoin="round"/>
<path opacity="0.7" d="M6.88354 21.7006V9.96722L9.86029 9.23389L15.0696 29.7672L12.837 30.5006C9.1161 28.3006 6.88354 25.7339 6.88354 21.7006Z" fill="#D4D5E8"/>
<path d="M46.593 10.558C46.593 10.0922 46.2586 9.69373 45.8 9.6129L36.2091 7.92285C36.0986 7.90338 35.9856 7.90344 35.8751 7.92301L26.0729 9.65999C25.6147 9.7412 25.2807 10.1395 25.2807 10.6049V22.4353C25.2807 22.5032 25.2879 22.5709 25.3022 22.6373C25.9743 25.7585 28.7479 27.9701 31.091 29.3479C32.2935 30.055 33.4532 30.5835 34.3103 30.9351C34.7399 31.1112 35.0961 31.244 35.3469 31.3334C35.4724 31.3781 35.5717 31.412 35.6409 31.4352C35.6754 31.4467 35.7025 31.4556 35.7215 31.4618L35.744 31.469L35.7507 31.4711L35.7528 31.4718L35.7536 31.4721C35.7539 31.4722 35.7541 31.4722 36.0426 30.557L35.7541 31.4722C35.9648 31.5386 36.1918 31.5303 36.3971 31.4487C41.4106 29.4558 43.9773 27.2859 45.2862 25.5105C45.9411 24.6223 46.2724 23.8439 46.4371 23.2575C46.5192 22.9654 46.5591 22.7241 46.5778 22.5442C46.5872 22.4543 46.5913 22.38 46.5927 22.3224C46.5934 22.2937 46.5935 22.2691 46.5933 22.2489L46.593 22.2373V10.558Z" fill="white" stroke="#939DFF" stroke-width="1.91926" stroke-miterlimit="10" stroke-linecap="square" stroke-linejoin="round"/>
<path d="M26.3595 23.3565C27.8961 28.4262 36.0422 30.6131 36.0422 30.6131V8.92407L26.24 10.6611V22.4181C26.24 22.7351 26.2676 23.0533 26.3595 23.3565Z" fill="#EDEFF5"/>
<path d="M38.6791 4.9832C38.6791 4.51746 38.3446 4.11896 37.886 4.03813L24.7376 1.72119C24.6271 1.70172 24.5141 1.70178 24.4036 1.72135L10.9654 4.10264C10.5072 4.18384 10.1732 4.58215 10.1732 5.04754V21.2662C10.1732 21.3341 10.1805 21.4018 10.1947 21.4682C11.0824 25.5907 14.765 28.5555 17.9632 30.4361C19.5932 31.3946 21.167 32.112 22.3313 32.5895C22.9145 32.8286 23.3976 33.0087 23.7369 33.1296C23.9066 33.1901 24.0405 33.2358 24.1332 33.2668C24.1796 33.2823 24.2157 33.2942 24.2408 33.3023L24.2702 33.3118L24.2785 33.3145L24.2811 33.3153L24.282 33.3155C24.2823 33.3157 24.2826 33.3157 24.5711 32.4005L24.2826 33.3157C24.4932 33.3821 24.7203 33.3738 24.9255 33.2922C31.757 30.5766 35.2131 27.6362 36.957 25.2709C37.8293 24.0877 38.2644 23.0596 38.4786 22.2971C38.5854 21.917 38.6364 21.6062 38.6601 21.3787C38.6719 21.265 38.677 21.1723 38.6787 21.1024C38.6796 21.0675 38.6797 21.0382 38.6794 21.0149C38.6793 21.0076 38.6792 21.0008 38.6791 20.9947V4.9832Z" fill="white" stroke="#939DFF" stroke-width="1.91926" stroke-miterlimit="10" stroke-linecap="square" stroke-linejoin="round"/>
<path d="M11.2471 22.3629C13.2218 29.4335 24.5707 32.4803 24.5707 32.4803V2.74609L11.1325 5.12738V21.4224C11.1325 21.7393 11.1619 22.0576 11.2471 22.3629Z" fill="#EDEFF5"/>
<path d="M24.74 12.3242L21.236 21.0002H19.778L16.274 12.3242H17.57C17.71 12.3242 17.824 12.3582 17.912 12.4262C18 12.4942 18.066 12.5822 18.11 12.6902L20.156 17.9822C20.224 18.1542 20.288 18.3442 20.348 18.5522C20.412 18.7562 20.472 18.9702 20.528 19.1942C20.576 18.9702 20.628 18.7562 20.684 18.5522C20.74 18.3442 20.802 18.1542 20.87 17.9822L22.904 12.6902C22.936 12.5982 22.998 12.5142 23.09 12.4382C23.186 12.3622 23.302 12.3242 23.438 12.3242H24.74ZM27.8533 13.6082V16.1762H31.1053V17.4662H27.8533V21.0002H26.2333V12.3242H31.7053V13.6082H27.8533Z" fill="#939DFF"/>
</svg>
