<svg width="61" height="12" viewBox="0 0 61 12" fill="none" xmlns="http://www.w3.org/2000/svg">
<path d="M2.10156 9.92676H6.81836V11H0.782227V1.04688H2.10156V9.92676ZM9.49121 11H8.22656V0.5H9.49121V11ZM16.0879 11C16.015 10.8542 15.9557 10.5944 15.9102 10.2207C15.3223 10.8314 14.6204 11.1367 13.8047 11.1367C13.0755 11.1367 12.4762 10.9316 12.0068 10.5215C11.542 10.1068 11.3096 9.58268 11.3096 8.94922C11.3096 8.17904 11.6012 7.58203 12.1846 7.1582C12.7725 6.72982 13.5973 6.51562 14.6592 6.51562H15.8896V5.93457C15.8896 5.49251 15.7575 5.1416 15.4932 4.88184C15.2288 4.61751 14.8392 4.48535 14.3242 4.48535C13.873 4.48535 13.4948 4.59928 13.1895 4.82715C12.8841 5.05501 12.7314 5.33073 12.7314 5.6543H11.46C11.46 5.28516 11.5898 4.92969 11.8496 4.58789C12.1139 4.24154 12.4694 3.9681 12.916 3.76758C13.3672 3.56706 13.8617 3.4668 14.3994 3.4668C15.2516 3.4668 15.9193 3.68099 16.4023 4.10938C16.8854 4.5332 17.1361 5.11882 17.1543 5.86621V9.27051C17.1543 9.94954 17.2409 10.4896 17.4141 10.8906V11H16.0879ZM13.9893 10.0361C14.3857 10.0361 14.7617 9.93359 15.1172 9.72852C15.4727 9.52344 15.7301 9.25684 15.8896 8.92871V7.41113H14.8984C13.349 7.41113 12.5742 7.86458 12.5742 8.77148C12.5742 9.16797 12.7064 9.47786 12.9707 9.70117C13.235 9.92448 13.5745 10.0361 13.9893 10.0361ZM15.1582 0.5H16.6895L14.8574 2.50977H13.8389L15.1582 0.5ZM20.3262 3.60352L20.3604 4.42383C20.9027 3.78581 21.6341 3.4668 22.5547 3.4668C23.5892 3.4668 24.2933 3.86328 24.667 4.65625C24.9131 4.30078 25.2321 4.01367 25.624 3.79492C26.0205 3.57617 26.4876 3.4668 27.0254 3.4668C28.6478 3.4668 29.4727 4.32585 29.5 6.04395V11H28.2354V6.11914C28.2354 5.59049 28.1146 5.19629 27.873 4.93652C27.6315 4.6722 27.2259 4.54004 26.6562 4.54004C26.1868 4.54004 25.7972 4.68132 25.4873 4.96387C25.1774 5.24186 24.9974 5.61784 24.9473 6.0918V11H23.6758V6.15332C23.6758 5.0778 23.1494 4.54004 22.0967 4.54004C21.2673 4.54004 20.6999 4.89323 20.3945 5.59961V11H19.1299V3.60352H20.3262ZM35.9805 11C35.9076 10.8542 35.8483 10.5944 35.8027 10.2207C35.2148 10.8314 34.513 11.1367 33.6973 11.1367C32.9681 11.1367 32.3688 10.9316 31.8994 10.5215C31.4346 10.1068 31.2021 9.58268 31.2021 8.94922C31.2021 8.17904 31.4938 7.58203 32.0771 7.1582C32.665 6.72982 33.4899 6.51562 34.5518 6.51562H35.7822V5.93457C35.7822 5.49251 35.6501 5.1416 35.3857 4.88184C35.1214 4.61751 34.7318 4.48535 34.2168 4.48535C33.7656 4.48535 33.3874 4.59928 33.082 4.82715C32.7767 5.05501 32.624 5.33073 32.624 5.6543H31.3525C31.3525 5.28516 31.4824 4.92969 31.7422 4.58789C32.0065 4.24154 32.362 3.9681 32.8086 3.76758C33.2598 3.56706 33.7542 3.4668 34.292 3.4668C35.1442 3.4668 35.8118 3.68099 36.2949 4.10938C36.778 4.5332 37.0286 5.11882 37.0469 5.86621V9.27051C37.0469 9.94954 37.1335 10.4896 37.3066 10.8906V11H35.9805ZM33.8818 10.0361C34.2783 10.0361 34.6543 9.93359 35.0098 9.72852C35.3652 9.52344 35.6227 9.25684 35.7822 8.92871V7.41113H34.791C33.2415 7.41113 32.4668 7.86458 32.4668 8.77148C32.4668 9.16797 32.599 9.47786 32.8633 9.70117C33.1276 9.92448 33.4671 10.0361 33.8818 10.0361ZM40.2256 3.60352L40.2666 4.5332C40.8317 3.82227 41.57 3.4668 42.4814 3.4668C44.0446 3.4668 44.833 4.34863 44.8467 6.1123V11H43.582V6.10547C43.5775 5.57227 43.4544 5.17806 43.2129 4.92285C42.9759 4.66764 42.6045 4.54004 42.0986 4.54004C41.6885 4.54004 41.3285 4.64941 41.0186 4.86816C40.7087 5.08691 40.4671 5.37402 40.2939 5.72949V11H39.0293V3.60352H40.2256ZM46.4189 7.2334C46.4189 6.50879 46.5602 5.8571 46.8428 5.27832C47.1299 4.69954 47.5264 4.25293 48.0322 3.93848C48.5426 3.62402 49.1237 3.4668 49.7754 3.4668C50.7826 3.4668 51.596 3.81543 52.2158 4.5127C52.8402 5.20996 53.1523 6.13737 53.1523 7.29492V7.38379C53.1523 8.10384 53.0133 8.75098 52.7354 9.3252C52.4619 9.89486 52.0677 10.3392 51.5527 10.6582C51.0423 10.9772 50.4544 11.1367 49.7891 11.1367C48.7865 11.1367 47.973 10.7881 47.3486 10.0908C46.7288 9.39355 46.4189 8.4707 46.4189 7.32227V7.2334ZM47.6904 7.38379C47.6904 8.2041 47.8796 8.86263 48.2578 9.35938C48.6406 9.85612 49.151 10.1045 49.7891 10.1045C50.4316 10.1045 50.9421 9.85384 51.3203 9.35254C51.6986 8.84668 51.8877 8.1403 51.8877 7.2334C51.8877 6.4222 51.694 5.76595 51.3066 5.26465C50.9238 4.75879 50.4134 4.50586 49.7754 4.50586C49.151 4.50586 48.6475 4.75423 48.2646 5.25098C47.8818 5.74772 47.6904 6.45866 47.6904 7.38379ZM59.0449 9.03809C59.0449 8.69629 58.915 8.43197 58.6553 8.24512C58.4001 8.05371 57.9512 7.88965 57.3086 7.75293C56.6706 7.61621 56.1624 7.45215 55.7842 7.26074C55.4105 7.06934 55.1325 6.84147 54.9502 6.57715C54.7725 6.31283 54.6836 5.99837 54.6836 5.63379C54.6836 5.02767 54.9388 4.51497 55.4492 4.0957C55.9642 3.67643 56.6204 3.4668 57.418 3.4668C58.2565 3.4668 58.9355 3.68327 59.4551 4.11621C59.9792 4.54915 60.2412 5.10286 60.2412 5.77734H58.9697C58.9697 5.43099 58.8216 5.13249 58.5254 4.88184C58.2337 4.63118 57.8646 4.50586 57.418 4.50586C56.9577 4.50586 56.5977 4.60612 56.3379 4.80664C56.0781 5.00716 55.9482 5.26921 55.9482 5.59277C55.9482 5.89811 56.069 6.12826 56.3105 6.2832C56.5521 6.43815 56.9873 6.58626 57.6162 6.72754C58.2497 6.86882 58.7624 7.03743 59.1543 7.2334C59.5462 7.42936 59.8356 7.66634 60.0225 7.94434C60.2139 8.21777 60.3096 8.55273 60.3096 8.94922C60.3096 9.61003 60.0452 10.141 59.5166 10.542C58.988 10.9385 58.3021 11.1367 57.459 11.1367C56.8665 11.1367 56.3424 11.0319 55.8867 10.8223C55.431 10.6126 55.0732 10.321 54.8135 9.94727C54.5583 9.56901 54.4307 9.16113 54.4307 8.72363H55.6953C55.7181 9.14746 55.8867 9.4847 56.2012 9.73535C56.5202 9.98145 56.9395 10.1045 57.459 10.1045C57.9375 10.1045 58.3203 10.0088 58.6074 9.81738C58.8991 9.62142 59.0449 9.36165 59.0449 9.03809Z" fill="#6769FF"/>
</svg>
