<svg width="48" height="48" viewBox="0 0 48 48" fill="none" xmlns="http://www.w3.org/2000/svg">
<path d="M40.6118 38.414L16.9274 44.7735C13.7477 45.6152 10.4744 43.7447 9.63275 40.565L3.27327 16.8806C2.43158 13.7009 4.30201 10.4276 7.48175 9.58593L31.1661 3.24984C34.3458 2.40814 37.6191 4.27857 38.4608 7.45831L44.7969 31.1427C45.6854 34.299 43.7915 37.5723 40.6118 38.414Z" fill="#E1E4F4"/>
<path d="M15.8988 19.6864C15.8988 19.6864 14.4726 18.3537 14.5193 17.6056C14.5661 16.8574 14.7999 16.3898 15.1973 16.4833C15.5948 16.5534 16.1559 17.1847 16.1559 17.4887C16.1559 17.7926 15.852 18.4239 16.1559 18.7512C16.4833 19.1019 16.7405 19.7098 15.8988 19.6864Z" fill="#57617F"/>
<path d="M7.85596 28.5473L9.74977 33.9949L26.8876 29.6462L36.4502 17.5351L33.5978 8.18293L33.2939 7.64519C32.9432 7.03729 32.1716 6.82687 31.5637 7.17758L20.6451 13.4669C19.7566 13.9813 18.9617 14.6359 18.2836 15.4075L13.9816 20.3408C13.7011 20.6681 13.3971 20.9486 13.0698 21.2058L9.56273 23.918C8.48723 24.7363 7.85596 26.0222 7.85596 27.3783V28.5473Z" fill="#F97A7A"/>
<path d="M8.13644 25.3911C8.04292 25.6015 7.64545 26.7472 7.27137 28.1968C6.71024 28.7345 6.52319 29.5294 6.52319 29.9737V32.9196C6.52319 33.8314 7.01418 34.6731 7.78574 35.1174C10.1004 36.45 12.4618 37.8061 12.4618 37.8061C13.7945 38.5777 15.3376 38.9751 16.8807 38.9751H18.1199L19.2889 31.8207L8.13644 25.3911Z" fill="#57617F"/>
<path d="M7.15447 29.6229L7.55193 29.4359C7.55193 28.337 7.87926 27.355 7.87926 27.355L9.32885 26.0457L8.13644 25.3677C8.04292 25.5781 7.64545 26.7237 7.27137 28.1733C6.71024 28.7111 6.52319 29.506 6.52319 29.9502V30.9322C6.52319 31.8207 6.52319 32.4052 6.52319 32.8728C6.52319 32.8728 6.82714 32.9429 6.82714 32.7559C6.94404 31.5635 7.15447 29.6229 7.15447 29.6229Z" fill="#EF3F54"/>
<path d="M13.5841 20.8318L25.9757 27.9862L20.154 31.3296C19.5929 31.6569 18.9616 31.8673 18.3303 31.9375L15.8988 32.2181C14.9869 32.3116 14.0751 32.1245 13.3035 31.6803L9.02491 29.202C8.3235 28.7811 7.87927 28.033 7.87927 27.2146V26.5366C7.87927 25.7183 8.25336 24.9467 8.90801 24.4558L13.5841 20.8318Z" fill="#F97A7A"/>
<path d="M20.528 13.9814C20.528 13.9814 20.2474 15.8753 23.0998 17.5353C25.9522 19.1953 28.828 19.733 28.828 19.733L42.5757 12.5552L33.2937 7.2245C32.7092 6.89717 32.0077 6.89717 31.4466 7.2245L21.1826 13.1397L20.528 13.9814Z" fill="#F97A7A"/>
<path d="M20.4345 31.1662L23.4038 29.4594C25.0639 28.5008 26.303 26.9811 26.9343 25.1808L28.8281 19.7332L41.0093 12.6956C41.6873 12.2982 42.5524 12.3917 43.1603 12.9061L44.002 13.6309C45.2645 14.7064 45.966 16.2962 45.966 17.9562V21.814C45.966 23.2402 45.1944 24.5729 43.9552 25.2977L22.0244 37.9699C20.8788 38.6245 19.5695 38.9752 18.2368 38.9752H16.9976C15.6415 38.9752 14.5193 37.8764 14.5193 36.5203V34.7901C14.5193 33.4107 15.548 32.2651 16.9041 32.1014L18.0263 31.9845C18.868 31.8676 19.6864 31.6104 20.4345 31.1662Z" fill="#EF3F54"/>
<path d="M28.8749 26.1159L42.459 17.4184C42.8097 17.2079 42.8564 16.717 42.5525 16.4364L40.5885 14.566C40.3781 14.3789 40.0742 14.3322 39.8404 14.4724L31.3065 19.4057C30.3245 19.9668 29.5997 20.8787 29.2958 21.9776L28.2203 25.6249C28.08 26.0224 28.5242 26.3497 28.8749 26.1159Z" fill="#FFB75E"/>
<path d="M14.4959 20.4578L18.5874 15.6415C18.8212 15.3843 19.2187 15.3375 19.4759 15.5713C20.1539 16.1558 21.4866 17.2313 22.8193 18.0029C24.2455 18.8212 26.2796 19.6629 27.285 20.0604C27.6123 20.1773 27.7526 20.5514 27.6357 20.8787L25.3678 26.5367C25.1807 27.0277 24.6196 27.2849 24.1052 27.0745C22.5154 26.4432 19.2421 25.1105 17.4652 24.0818C16.039 23.2635 15.057 22.3283 14.5192 21.7204C14.1919 21.3697 14.1919 20.8319 14.4959 20.4578Z" fill="#FDFDFD"/>
<path d="M16.4132 34.5798C15.6182 35.0474 15.478 35.4215 15.478 36.2632V38.7415L13.3971 37.6192L14.496 34.6032L18.5875 33.2237C18.5875 33.2004 18.2836 33.4809 16.4132 34.5798Z" fill="#57617F"/>
<path d="M7.55196 27.2615C7.55196 27.2615 6.68688 30.0671 7.55196 30.5581L14.2388 34.7666C14.2388 34.7666 15.174 34.9536 17.3951 34.5328C17.6523 34.486 18.3771 33.9483 19.5227 33.0131C19.6396 32.9195 19.5227 32.7325 19.4058 32.8026C18.3303 33.2235 16.3898 33.8314 14.5427 33.504C12.6255 32.4285 7.57534 29.4826 7.57534 29.4826C7.57534 29.4826 7.43506 28.4071 7.55196 27.2615Z" fill="#FFB75E"/>
<path d="M7.55197 29.4592L14.5193 33.4807C14.5193 33.4807 14.3323 35.5849 13.5841 35.1407C12.8359 34.7198 8.48719 32.1947 7.87929 31.8207C7.31816 31.4699 7.55197 29.4592 7.55197 29.4592Z" fill="#2B2E3A"/>
<path d="M27.4253 34.86L27.3318 32.218L26.7473 31.5166H24.643L23.1233 32.5921L21.2763 35.2575L20.4346 38.1333L20.5515 38.6242C20.5515 38.6242 21.3932 38.3904 22.0946 37.9228C22.8194 37.4318 27.4253 34.86 27.4253 34.86Z" fill="#2B2E3A"/>
<path d="M24.1988 32.218C23.8949 32.218 23.6143 32.2882 23.3571 32.4518C21.8374 33.3169 20.832 34.9535 20.832 36.824C20.832 37.7592 21.5802 38.5073 22.5154 38.5073C22.8194 38.5073 23.1233 38.4138 23.3571 38.2735C24.8535 37.4085 25.8822 35.7718 25.8822 33.9014C25.8822 32.9662 25.134 32.218 24.1988 32.218Z" fill="#2B2E3A"/>
<path d="M21.6737 38.2738L22.9362 38.9752L26.2563 33.1301L24.9703 32.4053L21.6737 38.2738Z" fill="#2B2E3A"/>
<path d="M45.2178 23.8245L45.1476 24.222L42.8564 25.7417L41.2197 26.864L38.3206 28.524L39.7935 23.8012L42.529 21.4164C42.529 21.4164 44.1657 21.1358 44.2124 21.0657C44.2592 20.9955 45.3347 21.58 45.3347 21.58L45.4516 22.5854L45.2178 23.8245Z" fill="#2B2E3A"/>
<path d="M42.2017 21.9075C41.8978 21.9075 41.6172 21.9776 41.36 22.1413C39.8403 23.0063 38.835 24.643 38.835 26.5134C38.835 27.4486 39.5831 28.1968 40.5184 28.1968C40.8223 28.1968 41.1262 28.1033 41.36 27.963C42.8564 27.0979 43.8851 25.4613 43.8851 23.5909C43.8851 22.6556 43.137 21.9075 42.2017 21.9075Z" fill="#2B2E3A"/>
<path d="M39.6766 27.963L40.9392 28.6878L44.2592 22.8193L42.9733 22.0945L39.6766 27.963Z" fill="#2B2E3A"/>
<path d="M43.4642 22.6321C43.1602 22.6321 42.8797 22.7022 42.6225 22.8659C41.1028 23.731 40.0974 25.3676 40.0974 27.238C40.0974 28.1732 40.8456 28.9214 41.7808 28.9214C42.0847 28.9214 42.3887 28.8279 42.6225 28.6876C44.1188 27.8225 45.1476 26.1859 45.1476 24.3155C45.1476 23.3803 44.3994 22.6321 43.4642 22.6321Z" fill="#57617F"/>
<path d="M43.3006 23.2869C43.0668 23.2869 42.8329 23.357 42.6459 23.4739C41.4535 24.1519 40.6586 25.4612 40.6586 26.9342C40.6586 27.659 41.2431 28.2669 41.9913 28.2669C42.2251 28.2669 42.4589 28.1968 42.6693 28.0799C43.8617 27.3784 44.6566 26.0925 44.6566 24.6196C44.6332 23.8714 44.0487 23.2869 43.3006 23.2869Z" fill="#57617F"/>
<path d="M20.5514 38.6244C20.5514 38.6244 21.7204 32.8728 25.0405 31.8441C28.3605 30.8153 26.8875 35.1407 26.8875 35.1407L27.8461 34.5796C27.8461 34.5796 28.4774 30.0438 25.0405 31.1193C20.6216 32.5221 19.2655 38.8816 19.2655 38.8816C19.6864 39.0453 20.2241 38.8348 20.5514 38.6244Z" fill="#F97A7A"/>
<path d="M43.137 20.8786C38.2271 22.4451 37.3621 29.1085 37.3621 29.1085L38.6714 28.3604C38.6714 28.3604 39.7936 22.6322 43.1136 21.6034C45.6153 20.8319 45.4049 23.0764 45.1477 24.2454C45.5218 23.7544 45.779 23.1699 45.8959 22.562C45.6855 21.4164 45.0542 20.2473 43.137 20.8786Z" fill="#F97A7A"/>
<path d="M25.4613 32.9431C25.1573 32.9431 24.8768 33.0133 24.6196 33.1769C23.0998 34.042 22.0945 35.6786 22.0945 37.5491C22.0945 38.4843 22.8427 39.2324 23.7779 39.2324C24.0818 39.2324 24.3858 39.1389 24.6196 38.9986C26.1159 38.1336 27.1447 36.4969 27.1447 34.6265C27.1447 33.6913 26.3965 32.9431 25.4613 32.9431Z" fill="#57617F"/>
<path d="M25.3211 33.5276C25.0639 33.5276 24.8301 33.5977 24.6431 33.7146C23.4273 34.416 22.5856 35.7487 22.5856 37.2685C22.5856 38.0166 23.1935 38.6245 23.9416 38.6245C24.1988 38.6245 24.4326 38.5544 24.6431 38.4375C25.8588 37.7361 26.6771 36.4034 26.6771 34.907C26.7005 34.1355 26.0693 33.5276 25.3211 33.5276Z" fill="#57617F"/>
<path d="M29.2724 24.8534C28.9451 24.8767 28.5476 25.2976 28.5476 25.8587C28.571 26.4198 28.8282 26.5134 29.0386 26.6069C29.249 26.7004 30.909 26.981 31.3533 26.5134C31.7975 26.0458 31.6572 25.6951 31.2597 25.4846C30.8623 25.2742 29.74 24.8066 29.2724 24.8534Z" fill="#57617F"/>
<path d="M28.0098 25.9524C27.963 26.233 28.6645 26.3265 28.8047 26.3499C28.945 26.3732 28.8281 25.6251 28.6878 25.5783C28.5476 25.5316 28.0332 25.7654 28.0098 25.9524Z" fill="#57617F"/>
<path d="M7.43502 32.6858L14.5193 36.7774C14.9401 38.9751 15.4311 38.8582 15.4311 38.8582C14.5427 38.7179 13.6308 38.414 12.6489 37.8762L7.83249 35.0706C7.3415 34.7199 6.92065 34.3692 6.85051 34.0652C6.82713 33.6678 7.43502 32.6858 7.43502 32.6858Z" fill="#2B2E3A"/>
<path d="M14.3322 21.51C13.8179 22.0711 13.3736 22.679 12.906 23.2635L11.5266 25.0171C11.059 25.6016 10.5914 26.1861 10.1238 26.7706C9.88997 27.0512 9.65616 27.3551 9.42236 27.6357C9.30545 27.776 9.18855 27.9396 9.07165 28.0799C8.95475 28.2436 8.83785 28.3839 8.79109 28.5709C8.7677 28.3839 8.83785 28.1734 8.90799 28.0098C8.97813 27.8227 9.04827 27.6591 9.11841 27.472C9.28207 27.1213 9.46912 26.794 9.65616 26.4667C10.0536 25.812 10.4745 25.1807 10.9655 24.5962C11.4331 24.0117 11.9474 23.4272 12.4852 22.9128C13.0463 22.3517 13.6308 21.8373 14.3322 21.51Z" fill="#EF3F54"/>
<path d="M14.0518 31.5636C14.7532 31.0259 15.5247 30.6284 16.2963 30.2309C17.0678 29.8335 17.8628 29.4594 18.6343 29.1087C19.4293 28.758 20.2242 28.4072 21.0425 28.1033C21.8608 27.776 22.6557 27.472 23.4974 27.2148C22.796 27.7526 22.0479 28.1968 21.2763 28.6177C20.5048 29.0385 19.7332 29.4126 18.9383 29.7633C18.1433 30.114 17.3484 30.4413 16.5301 30.7453C15.7118 31.0492 14.8935 31.3064 14.0518 31.5636Z" fill="#EF3F54"/>
<path fill-rule="evenodd" clip-rule="evenodd" d="M35.2502 16.125L37.1252 22.125L36.0002 23.25L34.1252 17.25L35.2502 16.125Z" fill="#EF3F54"/>
<path d="M45.8023 16.5298C45.8023 16.5298 45.6152 17.0675 44.4696 17.7689C44.4696 18.3535 45.5685 18.8678 45.966 18.6574C45.966 18.6574 46.0595 17.3247 45.8023 16.5298Z" fill="#FFB75E"/>
</svg>
